{
	"asset":{
		"version":"2.0",
		"generator":"Created using the official Cinema 4D glTF Exporter 1.000x284978"
	},
	"scenes":[{
		"nodes":[0,
		2]
	}],
	"buffers":[{
		"uri":"data:application/octet-stream;base64,",
		"byteLength":210944
	},
	{
		"uri":"data:application/octet-stream;base64,",
		"byteLength":2420
	},
	{
		"uri":"data:application/octet-stream;base64,",
		"byteLength":4356
	},
	{
		"uri":"data:application/octet-stream;base64,",
		"byteLength":4356
	},
	{
		"uri":"data:application/octet-stream;base64,",
		"byteLength":4356
	},
	{
		"uri":"data:application/octet-stream;base64,",
		"byteLength":4356
	},
	{
		"uri":"data:application/octet-stream;base64,",
		"byteLength":4356
	},
	{
		"uri":"data:application/octet-stream;base64,",
		"byteLength":384
	}],
	"nodes":[{
		"name":"Polygon",
		"translation":[-28.82587432861328,
		-16.162073135375978,
		-2.906742572784424],
		"rotation":[0.2105250358581543,
		0.050929956138134,
		-0.24598638713359834,
		0.9447624087333679],
		"scale":[1.0,
		1.0,
		1.0],
		"children":[1]
	},
	{
		"name":"Polygon",
		"mesh":0,
		"skin":0
	},
	{
		"name":"Root",
		"translation":[0.0,
		16.868120193481447,
		-227.16322326660157],
		"rotation":[-0.050335079431533816,
		-0.4005424678325653,
		0.02204318530857563,
		-0.9146289825439453],
		"scale":[1.0,
		1.0,
		1.0],
		"children":[3]
	},
	{
		"name":"Joint",
		"translation":[22.1989688873291,
		3.235996961593628,
		22.81783103942871],
		"rotation":[0.03845613822340965,
		-0.6948699951171875,
		0.7175633311271668,
		-0.02792302705347538],
		"scale":[1.0,
		1.0,
		1.0],
		"children":[4]
	},
	{
		"name":"Joint_1",
		"translation":[-0.005832832306623459,
		0.09467471390962601,
		-20.09682846069336],
		"rotation":[0.0060866218991577629,
		-0.004367710556834936,
		-0.00010170495806960389,
		0.9999719262123108],
		"scale":[1.0,
		1.0,
		1.0],
		"children":[5]
	},
	{
		"name":"Joint_2",
		"translation":[-0.0028547821566462518,
		0.03273593634366989,
		-15.930988311767579],
		"rotation":[0.014069161377847195,
		-0.010961503721773625,
		-0.0003116964071523398,
		0.9998409152030945],
		"scale":[1.0,
		1.0,
		1.0],
		"children":[6]
	},
	{
		"name":"Joint_3",
		"translation":[0.030193081125617029,
		0.012643471360206604,
		-16.419479370117189],
		"rotation":[-0.043187014758586887,
		0.002236434491351247,
		-0.004351614974439144,
		-0.999055027961731],
		"scale":[1.0,
		1.0,
		1.0],
		"children":[7]
	},
	{
		"name":"Joint_4",
		"translation":[0.02021826058626175,
		0.09144775569438935,
		-17.16378402709961],
		"rotation":[-0.12588970363140107,
		-0.019793320447206498,
		0.003853617701679468,
		-0.9918392896652222],
		"scale":[1.0,
		1.0,
		1.0],
		"children":[8]
	},
	{
		"name":"Joint_5",
		"translation":[-0.05257691442966461,
		0.4157886505126953,
		-12.877662658691407],
		"rotation":[-0.01753614842891693,
		-0.007128452882170677,
		0.0003625556128099561,
		-0.9998207688331604],
		"scale":[1.0,
		1.0,
		1.0]
	}],
	"meshes":[{
		"name":"Polygon",
		"primitives":[{
			"attributes":{
				"NORMAL":2,
				"POSITION":1,
				"TEXCOORD_0":3,
				"JOINTS_0":4,
				"WEIGHTS_0":5
			},
			"indices":0,
			"material":0
		}]
	}],
	"skins":[{
		"inverseBindMatrices":28,
		"joints":[3,
		4,
		5,
		6,
		7,
		8]
	}],
	"accessors":[{
		"bufferView":0,
		"type":"SCALAR",
		"componentType":5123,
		"count":13296,
		"byteOffset":0,
		"min":[0],
		"max":[3291]
	},
	{
		"bufferView":1,
		"type":"VEC3",
		"componentType":5126,
		"count":3292,
		"byteOffset":0,
		"min":[10.94219970703125,
		-28.58157730102539,
		-275.4776611328125],
		"max":[82.38092041015625,
		68.16297149658203,
		-217.27517700195313]
	},
	{
		"bufferView":1,
		"type":"VEC3",
		"componentType":5126,
		"count":3292,
		"byteOffset":12,
		"min":[-0.9992018938064575,
		-0.9937601685523987,
		-0.9998897314071655],
		"max":[0.9999297261238098,
		0.9984763860702515,
		0.9967050552368164]
	},
	{
		"bufferView":1,
		"type":"VEC2",
		"componentType":5126,
		"count":3292,
		"byteOffset":24,
		"min":[-1.0,
		-1.0499999523162842],
		"max":[0.0,
		0.0]
	},
	{
		"bufferView":2,
		"type":"VEC4",
		"componentType":5123,
		"count":3292,
		"byteOffset":0,
		"min":[1,
		0,
		0,
		0],
		"max":[5,
		5,
		3,
		3]
	},
	{
		"bufferView":3,
		"type":"VEC4",
		"componentType":5126,
		"count":3292,
		"byteOffset":0,
		"min":[0.6050354838371277,
		0.0,
		0.0,
		0.0],
		"max":[1.0,
		0.3949492573738098,
		0.0,
		0.0]
	},
	{
		"bufferView":4,
		"type":"SCALAR",
		"componentType":5126,
		"count":121,
		"byteOffset":0,
		"min":[0.0],
		"max":[4.0]
	},
	{
		"bufferView":4,
		"type":"VEC4",
		"componentType":5126,
		"count":121,
		"byteOffset":484,
		"min":[0.0252913199365139,
		-0.7054680585861206,
		0.7080453038215637,
		-0.03673860803246498],
		"max":[0.04566531628370285,
		-0.6206910610198975,
		0.7834258079528809,
		-0.015641992911696435]
	},
	{
		"bufferView":5,
		"type":"SCALAR",
		"componentType":5126,
		"count":121,
		"byteOffset":0,
		"min":[0.0],
		"max":[4.0]
	},
	{
		"bufferView":5,
		"type":"VEC3",
		"componentType":5126,
		"count":121,
		"byteOffset":484,
		"min":[-0.006565225310623646,
		0.07693599909543991,
		-20.098438262939454],
		"max":[0.006367672700434923,
		0.10900048166513443,
		-20.095666885375978]
	},
	{
		"bufferView":6,
		"type":"SCALAR",
		"componentType":5126,
		"count":121,
		"byteOffset":0,
		"min":[0.0],
		"max":[4.0]
	},
	{
		"bufferView":6,
		"type":"VEC4",
		"componentType":5126,
		"count":121,
		"byteOffset":484,
		"min":[-0.020078180357813836,
		-0.0049350145272910599,
		-0.00036190758692100644,
		-0.9999999403953552],
		"max":[0.017806682735681535,
		0.004835461266338825,
		0.000394740782212466,
		0.9999998807907105]
	},
	{
		"bufferView":7,
		"type":"SCALAR",
		"componentType":5126,
		"count":121,
		"byteOffset":0,
		"min":[0.0],
		"max":[4.0]
	},
	{
		"bufferView":7,
		"type":"VEC3",
		"componentType":5126,
		"count":121,
		"byteOffset":484,
		"min":[-0.0047439998015761379,
		0.02927953563630581,
		-15.934258460998536],
		"max":[0.006978263612836599,
		0.0533345490694046,
		-15.928466796875]
	},
	{
		"bufferView":8,
		"type":"SCALAR",
		"componentType":5126,
		"count":121,
		"byteOffset":0,
		"min":[0.0],
		"max":[4.0]
	},
	{
		"bufferView":8,
		"type":"VEC4",
		"componentType":5126,
		"count":121,
		"byteOffset":484,
		"min":[-0.03643575310707092,
		-0.011246763169765473,
		-0.0006410807836800814,
		-0.9999874830245972],
		"max":[0.03285891190171242,
		0.011466172523796559,
		0.0007098691421560943,
		0.9999852776527405]
	},
	{
		"bufferView":9,
		"type":"SCALAR",
		"componentType":5126,
		"count":121,
		"byteOffset":0,
		"min":[0.0],
		"max":[4.0]
	},
	{
		"bufferView":9,
		"type":"VEC3",
		"componentType":5126,
		"count":121,
		"byteOffset":484,
		"min":[-0.008303298614919186,
		-0.03164437785744667,
		-16.42458152770996],
		"max":[0.031133625656366349,
		0.058948736637830737,
		-16.415342330932618]
	},
	{
		"bufferView":10,
		"type":"SCALAR",
		"componentType":5126,
		"count":121,
		"byteOffset":0,
		"min":[0.0],
		"max":[4.0]
	},
	{
		"bufferView":10,
		"type":"VEC4",
		"componentType":5126,
		"count":121,
		"byteOffset":484,
		"min":[-0.04573933035135269,
		0.0003343969874549657,
		-0.00617206422612071,
		-0.9999601244926453],
		"max":[0.06443703919649124,
		0.03027336299419403,
		0.006233550142496824,
		0.9999637007713318]
	},
	{
		"bufferView":11,
		"type":"SCALAR",
		"componentType":5126,
		"count":121,
		"byteOffset":0,
		"min":[0.0],
		"max":[4.0]
	},
	{
		"bufferView":11,
		"type":"VEC3",
		"componentType":5126,
		"count":121,
		"byteOffset":484,
		"min":[-0.06584689766168595,
		-0.05770121514797211,
		-17.17021369934082],
		"max":[0.028933394700288774,
		0.15146873891353608,
		-17.158061981201173]
	},
	{
		"bufferView":12,
		"type":"SCALAR",
		"componentType":5126,
		"count":121,
		"byteOffset":0,
		"min":[0.0],
		"max":[4.0]
	},
	{
		"bufferView":12,
		"type":"VEC4",
		"componentType":5126,
		"count":121,
		"byteOffset":484,
		"min":[-0.1313847452402115,
		-0.02734464593231678,
		-0.004172622691839933,
		-0.9999662041664124],
		"max":[0.1383267194032669,
		0.06881074607372284,
		0.004012989345937967,
		0.9996915459632874]
	},
	{
		"bufferView":13,
		"type":"SCALAR",
		"componentType":5126,
		"count":121,
		"byteOffset":0,
		"min":[0.0],
		"max":[4.0]
	},
	{
		"bufferView":13,
		"type":"VEC3",
		"componentType":5126,
		"count":121,
		"byteOffset":484,
		"min":[-0.21708574891090394,
		-0.16262856125831605,
		-12.884679794311524],
		"max":[0.03910879045724869,
		0.4335929751396179,
		-12.875152587890625]
	},
	{
		"bufferView":14,
		"type":"SCALAR",
		"componentType":5126,
		"count":121,
		"byteOffset":0,
		"min":[0.0],
		"max":[4.0]
	},
	{
		"bufferView":14,
		"type":"VEC4",
		"componentType":5126,
		"count":121,
		"byteOffset":484,
		"min":[-0.018256383016705514,
		-0.00976875051856041,
		-0.0008804209064692259,
		-0.9999999403953552],
		"max":[0.018327701836824418,
		0.009793825447559357,
		0.0010113276075571776,
		0.999999463558197]
	},
	{
		"bufferView":15,
		"type":"MAT4",
		"componentType":5126,
		"count":6,
		"byteOffset":0,
		"min":[-0.706987738609314,
		-0.5491835474967957,
		0.46999886631965639,
		0.0,
		-0.16005100309848786,
		-0.8335999846458435,
		-0.8267810940742493,
		0.0,
		0.6970213651657105,
		-0.6309018135070801,
		0.309085875749588,
		0.0,
		205.10350036621095,
		-107.37126922607422,
		5.658194541931152,
		1.0],
		"max":[-0.6754932403564453,
		-0.3097533583641052,
		0.6357839107513428,
		0.0,
		-0.11970607191324234,
		-0.5480513572692871,
		-0.53924161195755,
		0.0,
		0.7216882705688477,
		-0.4573443830013275,
		0.5522655844688416,
		0.0,
		210.675048828125,
		-72.2341537475586,
		130.67930603027345,
		1.0]
	}],
	"animations":[{
		"samplers":[{
			"input":6,
			"interpolation":"LINEAR",
			"output":7
		},
		{
			"input":8,
			"interpolation":"LINEAR",
			"output":9
		},
		{
			"input":10,
			"interpolation":"LINEAR",
			"output":11
		},
		{
			"input":12,
			"interpolation":"LINEAR",
			"output":13
		},
		{
			"input":14,
			"interpolation":"LINEAR",
			"output":15
		},
		{
			"input":16,
			"interpolation":"LINEAR",
			"output":17
		},
		{
			"input":18,
			"interpolation":"LINEAR",
			"output":19
		},
		{
			"input":20,
			"interpolation":"LINEAR",
			"output":21
		},
		{
			"input":22,
			"interpolation":"LINEAR",
			"output":23
		},
		{
			"input":24,
			"interpolation":"LINEAR",
			"output":25
		},
		{
			"input":26,
			"interpolation":"LINEAR",
			"output":27
		}],
		"channels":[{
			"target":{
				"node":3,
				"path":"rotation"
			},
			"sampler":0
		},
		{
			"target":{
				"node":4,
				"path":"translation"
			},
			"sampler":1
		},
		{
			"target":{
				"node":4,
				"path":"rotation"
			},
			"sampler":2
		},
		{
			"target":{
				"node":5,
				"path":"translation"
			},
			"sampler":3
		},
		{
			"target":{
				"node":5,
				"path":"rotation"
			},
			"sampler":4
		},
		{
			"target":{
				"node":6,
				"path":"translation"
			},
			"sampler":5
		},
		{
			"target":{
				"node":6,
				"path":"rotation"
			},
			"sampler":6
		},
		{
			"target":{
				"node":7,
				"path":"translation"
			},
			"sampler":7
		},
		{
			"target":{
				"node":7,
				"path":"rotation"
			},
			"sampler":8
		},
		{
			"target":{
				"node":8,
				"path":"translation"
			},
			"sampler":9
		},
		{
			"target":{
				"node":8,
				"path":"rotation"
			},
			"sampler":10
		}]
	}],
	"bufferViews":[{
		"buffer":0,
		"byteLength":26592,
		"byteOffset":0,
		"target":34963
	},
	{
		"buffer":0,
		"byteLength":105344,
		"byteOffset":26592,
		"target":34962,
		"byteStride":32
	},
	{
		"buffer":0,
		"byteLength":26336,
		"byteOffset":131936,
		"target":34962
	},
	{
		"buffer":0,
		"byteLength":52672,
		"byteOffset":158272,
		"target":34962
	},
	{
		"buffer":1,
		"byteLength":2420,
		"byteOffset":0
	},
	{
		"buffer":2,
		"byteLength":1936,
		"byteOffset":0
	},
	{
		"buffer":2,
		"byteLength":2420,
		"byteOffset":1936
	},
	{
		"buffer":3,
		"byteLength":1936,
		"byteOffset":0
	},
	{
		"buffer":3,
		"byteLength":2420,
		"byteOffset":1936
	},
	{
		"buffer":4,
		"byteLength":1936,
		"byteOffset":0
	},
	{
		"buffer":4,
		"byteLength":2420,
		"byteOffset":1936
	},
	{
		"buffer":5,
		"byteLength":1936,
		"byteOffset":0
	},
	{
		"buffer":5,
		"byteLength":2420,
		"byteOffset":1936
	},
	{
		"buffer":6,
		"byteLength":1936,
		"byteOffset":0
	},
	{
		"buffer":6,
		"byteLength":2420,
		"byteOffset":1936
	},
	{
		"buffer":7,
		"byteLength":384,
		"byteOffset":0
	}],
	"materials":[{
		"pbrMetallicRoughness":{
			"baseColorFactor":[0.5,
			0.5,
			0.5,
			1.0],
			"metallicFactor":1.0,
			"roughnessFactor":1.0
		},
		"emissiveFactor":[0.0,
		0.0,
		0.0],
		"alphaMode":"OPAQUE",
		"doubleSided":true,
		"name":"Mf_Stigma"
	}]
}