{
    "asset" : {
        "generator" : "Khronos glTF Blender I/O v1.4.40",
        "version" : "2.0"
    },
    "scene" : 0,
    "scenes" : [
        {
            "name" : "Scene",
            "nodes" : [
                0,
                1,
                2,
                5
            ]
        }
    ],
    "nodes" : [
        {
            "mesh" : 0,
            "name" : "Hills",
            "rotation" : [
                -0.014735863544046879,
                0.706953227519989,
                0.7069532871246338,
                -0.014735865406692028
            ],
            "scale" : [
                -0.009999999776482582,
                -0.009999999776482582,
                -0.009999999776482582
            ],
            "translation" : [
                0.3350112736225128,
                0,
                -0.1376400589942932
            ]
        },
        {
            "name" : "Light1",
            "rotation" : [
                -0.3957354724407196,
                0.5525572896003723,
                -0.45839011669158936,
                0.5726712346076965
            ],
            "translation" : [
                0.46100008487701416,
                0.5075339674949646,
                -1.7564817667007446
            ]
        },
        {
            "name" : "Light2",
            "rotation" : [
                0,
                0,
                0.13600432872772217,
                0.9907082319259644
            ],
            "translation" : [
                -0.7506760358810425,
                1.1611753702163696,
                0
            ]
        },
        {
            "camera" : 0,
            "name" : "Camera_Orientation_Orientation",
            "rotation" : [
                -0.7071067690849304,
                0,
                0,
                0.7071067690849304
            ]
        },
        {
            "children" : [
                3
            ],
            "name" : "Camera_Orientation"
        },
        {
            "children" : [
                4
            ],
            "name" : "Camera.001",
            "rotation" : [
                0.5392689108848572,
                0.44168633222579956,
                -0.4004967212677002,
                0.5947306752204895
            ],
            "translation" : [
                2.767674207687378,
                0.2834717035293579,
                0.8356088399887085
            ]
        }
    ],
    "cameras" : [
        {
            "name" : "Camera.002",
            "perspective" : {
                "aspectRatio" : 1.7777777777777777,
                "yfov" : 0.39959651231765747,
                "zfar" : 1000,
                "znear" : 0.10000000149011612
            },
            "type" : "perspective"
        }
    ],
    "meshes" : [
        {
            "name" : "Mesh",
            "primitives" : [
                {
                    "attributes" : {
                        "POSITION" : 0,
                        "NORMAL" : 1,
                        "TEXCOORD_0" : 2
                    },
                    "indices" : 3
                }
            ]
        }
    ],
    "accessors" : [
        {
            "bufferView" : 0,
            "componentType" : 5126,
            "count" : 2601,
            "max" : [
                199.99998474121094,
                200,
                13.335208892822266
            ],
            "min" : [
                -200.6162567138672,
                -200.739501953125,
                -43.624332427978516
            ],
            "type" : "VEC3"
        },
        {
            "bufferView" : 1,
            "componentType" : 5126,
            "count" : 2601,
            "type" : "VEC3"
        },
        {
            "bufferView" : 2,
            "componentType" : 5126,
            "count" : 2601,
            "type" : "VEC2"
        },
        {
            "bufferView" : 3,
            "componentType" : 5123,
            "count" : 15000,
            "type" : "SCALAR"
        }
    ],
    "bufferViews" : [
        {
            "buffer" : 0,
            "byteLength" : 31212,
            "byteOffset" : 0
        },
        {
            "buffer" : 0,
            "byteLength" : 31212,
            "byteOffset" : 31212
        },
        {
            "buffer" : 0,
            "byteLength" : 20808,
            "byteOffset" : 62424
        },
        {
            "buffer" : 0,
            "byteLength" : 30000,
            "byteOffset" : 83232
        }
    ],
    "buffers" : [
        {
            "byteLength" : 113232,
            "uri" : "data:application/octet-stream;base64,"
        }
    ]
}
