{
	"asset":{
		"version":"2.0",
		"generator":"Created using the official Cinema 4D glTF Exporter 1.000x284978"
	},
	"scenes":[{
		"nodes":[0,
		1]
	}],
	"buffers":[{
		"uri":"data:application/octet-stream;base64,",
		"byteLength":113264
	}],
	"nodes":[{
		"name":"Camera",
		"translation":[187.21661376953126,
		15.380621910095215,
		150.44346618652345],
		"rotation":[0.027017557993531228,
		-0.44821667671203616,
		-0.013554436154663563,
		-0.893413782119751],
		"scale":[1.0,
		1.0,
		1.0],
		"camera":0
	},
	{
		"name":"Hills",
		"mesh":0
	}],
	"meshes":[{
		"name":"Hills",
		"primitives":[{
			"attributes":{
				"NORMAL":2,
				"POSITION":1,
				"TEXCOORD_0":3
			},
			"indices":0
		}]
	}],
	"cameras":[{
		"type":"perspective",
		"perspective":{
			"znear":0.009999999776482582,
			"zfar":10000000000.0,
			"aspectRatio":1.7777777910232545,
			"yfov":0.5483348965644836
		}
	}],
	"accessors":[{
		"bufferView":0,
		"type":"SCALAR",
		"componentType":5123,
		"count":15000,
		"byteOffset":0,
		"min":[0],
		"max":[2601]
	},
	{
		"bufferView":1,
		"type":"VEC3",
		"componentType":5126,
		"count":2602,
		"byteOffset":0,
		"min":[-200.6162567138672,
		-13.335208892822266,
		-200.739501953125],
		"max":[199.99998474121095,
		43.624332427978519,
		200.0]
	},
	{
		"bufferView":1,
		"type":"VEC3",
		"componentType":5126,
		"count":2602,
		"byteOffset":12,
		"min":[-0.9380406141281128,
		0.28765153884887698,
		-0.83029705286026],
		"max":[0.7210724949836731,
		0.9999807476997376,
		0.7994942665100098]
	},
	{
		"bufferView":1,
		"type":"VEC2",
		"componentType":5126,
		"count":2602,
		"byteOffset":24,
		"min":[0.0,
		0.0],
		"max":[1.0,
		1.0]
	}],
	"bufferViews":[{
		"buffer":0,
		"byteLength":30000,
		"byteOffset":0,
		"target":34963
	},
	{
		"buffer":0,
		"byteLength":83264,
		"byteOffset":30000,
		"target":34962,
		"byteStride":32
	}]
}